PathFileType  4	(X/Y/Z) C:\Users\antoi\Documents\MyRepositories\mobilecap\ResultsAnalysis
DataRate	CameraRate	NumFrames	NumMarkers	Units	OrigDataRate	OrigDataStartFrame	OrigNumFrames
100.0	100.0	4	51	mm	100.0	93	371
Frame#	Time	r_knee			r_shank_antsup			r_ankle			r_calc			r_5meta			r_toe			L_knee			L_shank_antsup			L_ankle			L_calc			L_5meta			L_toe			r_sh2			r_sh3			r_sh4			L_sh2			L_sh3			r_thigh1			r_thigh2			r_thigh3			r_thigh4			r_thigh5			L_thigh1			L_thigh2			L_thigh3			L_thigh4			r.ASIS			r.PSIS			L.ASIS			L.PSIS			C7			R_Shoulder			L_Shoulder			R_Sternum			L_Sternum			R_humerus			R_elbow_med			R_elbow_lat			R_forearm			R_wrist_radius			R_wrist_ulna			L_humerus			L_elbow_med			L_elbow_lat			L_forearm			L_wrist_radius			L_wrist_ulna			R_HJC			L_HJC			R_HJC_reg			L_HJC_reg			
		X1	Y1	Z1	X2	Y2	Z2	X3	Y3	Z3	X4	Y4	Z4	X5	Y5	Z5	X6	Y6	Z6	X7	Y7	Z7	X8	Y8	Z8	X9	Y9	Z9	X10	Y10	Z10	X11	Y11	Z11	X12	Y12	Z12	X13	Y13	Z13	X14	Y14	Z14	X15	Y15	Z15	X16	Y16	Z16	X17	Y17	Z17	X18	Y18	Z18	X19	Y19	Z19	X20	Y20	Z20	X21	Y21	Z21	X22	Y22	Z22	X23	Y23	Z23	X24	Y24	Z24	X25	Y25	Z25	X26	Y26	Z26	X27	Y27	Z27	X28	Y28	Z28	X29	Y29	Z29	X30	Y30	Z30	X31	Y31	Z31	X32	Y32	Z32	X33	Y33	Z33	X34	Y34	Z34	X35	Y35	Z35	X36	Y36	Z36	X37	Y37	Z37	X38	Y38	Z38	X39	Y39	Z39	X40	Y40	Z40	X41	Y41	Z41	X42	Y42	Z42	X43	Y43	Z43	X44	Y44	Z44	X45	Y45	Z45	X46	Y46	Z46	X47	Y47	Z47	X48	Y48	Z48	X49	Y49	Z49	X50	Y50	Z50	X51	Y51	Z51	

93	0.92000000	-1200.13594	779.15684	-426.64436	-1167.12920	666.26362	-439.33845	-1255.15744	396.74283	-462.39524	-1301.33498	358.24012	-515.80289	-1143.56989	349.57108	-423.15985	-1105.68301	368.00294	-465.13901	-1196.41360	780.89463	-746.08943	-1162.11306	676.19028	-705.75763	-1261.79276	397.16504	-729.98717	-1304.35698	366.14423	-693.61489	-1141.59032	347.15480	-745.79383	-1102.87858	367.52135	-692.97218	-1185.87577	554.78913	-454.11982	-1226.46121	667.25605	-392.51711	-1258.92088	563.27945	-415.22206	-1213.21024	702.71522	-772.98355	-1233.91681	582.75640	-783.66609	-1133.56918	1085.41941	-428.40748	-1123.12412	976.27548	-427.64455	-1166.13528	947.01924	-385.59987	-1236.77604	1075.04961	-387.78393	-1221.38697	958.46362	-384.40981	-1139.18755	1069.49794	-758.15853	-1121.11841	935.66205	-753.38229	-1243.85722	1068.30671	-791.53958	-1227.92756	925.32567	-780.57414	-1114.75451	1233.81201	-463.26697	-1286.94464	1308.82459	-535.67264	-1107.15330	1232.48235	-708.15211	-1287.23593	1309.85743	-653.40859	-1204.82361	1757.35554	-592.77328	-1162.77773	1714.40793	-438.56939	-1154.24161	1719.97923	-748.49496	-1097.49417	1685.59163	-569.42174	-1094.58387	1682.10181	-612.75921	-1162.29008	1587.75047	-368.96016	-1265.49667	1406.82192	-418.16973	-1240.30419	1410.06986	-345.80982	-1213.24024	1286.04386	-324.60949	-1204.36328	1181.86879	-322.86861	-1235.74008	1182.96327	-302.25853	-1157.33147	1568.88487	-814.46783	-1258.37163	1399.25358	-752.78937	-1239.63183	1404.57535	-835.10302	-1211.48442	1311.23336	-862.06617	-1204.85092	1178.01935	-862.16782	-1232.03253	1180.54931	-880.33477	-1216.32695	1179.80069	-491.93976	-1206.93067	1174.69648	-681.01537	-1195.64003	1177.13206	-497.83548	-1196.04001	1178.55042	-659.53320	
94	0.93000000	-1198.36244	778.97308	-426.80573	-1165.68247	665.80222	-439.57362	-1255.03225	396.88181	-462.38596	-1301.47341	358.27642	-515.77744	-1143.59962	349.66394	-423.18382	-1105.69312	368.11059	-465.13487	-1195.59373	780.62782	-745.84911	-1161.42165	675.96158	-705.56313	-1261.76129	397.18903	-729.97542	-1304.38930	366.17730	-693.58020	-1141.60242	347.27719	-745.95442	-1102.88374	367.56297	-693.00297	-1184.94083	554.44117	-454.37869	-1224.92735	667.21205	-392.68281	-1258.27412	563.60708	-415.03419	-1212.51405	702.61220	-773.17815	-1233.46975	582.76747	-783.41035	-1133.47250	1085.48435	-428.45735	-1122.41883	976.32555	-427.98766	-1165.24304	946.90996	-385.51295	-1237.06800	1074.87450	-387.52074	-1220.52072	958.05259	-384.52309	-1139.52143	1069.51422	-757.94642	-1120.92806	935.77415	-753.34082	-1243.93224	1068.12472	-791.71743	-1227.69500	925.07695	-780.30078	-1114.80978	1233.13061	-463.42808	-1286.83792	1308.92896	-535.55061	-1107.37625	1231.95216	-708.00986	-1287.17543	1310.12147	-653.09895	-1202.36543	1757.04596	-592.62645	-1160.16167	1714.17640	-438.62753	-1151.69269	1719.69256	-748.41877	-1095.20424	1684.89553	-569.34989	-1092.38333	1681.33656	-612.95313	-1160.70767	1587.67386	-368.80070	-1265.84883	1407.48979	-417.78207	-1240.24750	1410.66469	-345.56550	-1214.36244	1286.46163	-324.16938	-1206.37053	1182.22511	-322.26030	-1237.80253	1183.87853	-301.41034	-1155.85191	1568.66005	-814.39873	-1260.95268	1400.40072	-755.09354	-1239.64667	1404.96687	-835.01970	-1212.36204	1311.54000	-862.27833	-1206.82771	1178.24713	-862.31544	-1233.89164	1180.18390	-879.75522	-1216.66880	1179.57376	-491.90745	-1207.43135	1174.60303	-680.99449	-1195.93717	1176.82149	-497.98558	-1196.40088	1178.45993	-659.47700	
95	0.94000000	-1196.52582	778.86161	-426.85062	-1164.15812	665.28942	-439.93881	-1254.99979	396.86222	-462.59336	-1301.60478	358.30079	-515.74981	-1143.61970	349.73497	-423.23683	-1105.70436	368.18847	-465.14696	-1194.84832	780.49305	-745.79939	-1160.67772	675.71166	-705.43523	-1261.74041	397.20175	-729.90724	-1304.41260	366.20333	-693.54593	-1141.62227	347.36291	-746.02068	-1102.92123	367.60212	-693.02005	-1184.00423	553.99399	-454.56748	-1223.39784	667.21403	-392.83472	-1257.63416	564.10849	-414.91267	-1211.75109	702.36796	-773.15668	-1232.85170	582.70234	-782.92348	-1133.28641	1085.57006	-428.58942	-1121.41646	976.98041	-427.04997	-1164.33004	946.82303	-385.48325	-1237.00132	1074.29787	-387.41146	-1219.66635	957.62380	-384.55835	-1139.82846	1069.63184	-757.95859	-1120.77905	935.93994	-753.47384	-1244.46114	1067.69931	-791.72458	-1227.47656	924.86855	-780.04646	-1114.84318	1232.57757	-463.43232	-1286.69601	1308.99527	-535.38094	-1107.64257	1231.44219	-707.88691	-1287.13484	1310.36934	-652.74191	-1199.67448	1756.65367	-592.43175	-1157.48800	1713.86962	-438.62843	-1149.12703	1719.26776	-748.18204	-1092.85275	1684.14448	-569.28799	-1090.17183	1680.46300	-612.87530	-1159.07716	1587.57827	-368.50682	-1265.88920	1408.26947	-417.32013	-1240.17557	1411.29366	-345.13801	-1215.40258	1286.79747	-323.62192	-1208.42426	1182.55320	-321.60136	-1239.82288	1184.63096	-300.73208	-1154.31257	1568.41803	-814.31113	-1260.35999	1400.92195	-754.64061	-1239.65508	1405.35985	-834.92146	-1213.20992	1311.79033	-862.43495	-1208.88127	1178.34055	-862.22142	-1235.94682	1180.61348	-879.63925	-1216.95390	1179.40246	-491.77742	-1207.91027	1174.49567	-680.87553	-1196.16839	1176.44850	-497.98012	-1196.77209	1178.33842	-659.37962	
96	0.95000000	-1194.62426	778.62994	-427.03250	-1162.58288	664.83361	-440.30496	-1254.93789	396.78435	-462.77211	-1301.60277	358.33956	-515.77501	-1143.61455	349.76387	-423.30260	-1105.70180	368.22926	-465.15757	-1194.02541	780.46661	-745.74482	-1159.87110	675.43782	-705.32363	-1261.71374	397.21929	-729.79924	-1304.41937	366.13337	-693.45804	-1141.63374	347.37545	-745.99855	-1102.96461	367.64468	-693.00891	-1183.12486	553.59950	-454.74141	-1221.90722	667.14794	-393.07045	-1256.31024	563.54729	-415.24997	-1210.90339	702.08607	-772.87584	-1232.26969	582.54349	-782.57937	-1133.09469	1085.58573	-428.68372	-1120.21921	977.93925	-425.39993	-1163.41454	946.65545	-385.61536	-1236.35648	1072.79530	-387.46853	-1218.80403	957.08715	-384.55263	-1139.80404	1070.16048	-758.85046	-1120.62843	936.10700	-753.61812	-1245.43161	1067.10200	-791.60831	-1227.18934	924.60331	-779.89188	-1114.88427	1232.02120	-463.39725	-1286.48163	1308.98332	-534.98896	-1107.97991	1230.89829	-707.80718	-1287.09157	1310.54849	-652.40775	-1196.89335	1756.33401	-592.25767	-1154.78313	1713.51537	-438.56217	-1146.47405	1718.65757	-747.87601	-1090.39339	1683.31377	-569.15394	-1087.74151	1679.57999	-612.55203	-1157.40494	1587.39647	-368.10278	-1265.32730	1409.14141	-416.88761	-1240.03768	1411.92496	-344.54453	-1216.39032	1287.11661	-323.02155	-1210.45912	1182.87261	-320.87179	-1241.73962	1185.06625	-300.32239	-1152.81064	1568.02565	-814.17931	-1257.61030	1400.87631	-752.24301	-1239.60073	1405.75688	-834.71218	-1214.06929	1311.97312	-862.37756	-1210.95198	1178.36919	-862.13517	-1238.26493	1181.63299	-880.09122	-1217.18844	1179.18858	-491.58658	-1208.42174	1174.33997	-680.69910	-1196.36943	1176.01129	-497.90287	-1197.20767	1178.16211	-659.26306	
